# xmcd
#
# Track frame offsets: 
#        150
#        24897
#        47672
#        70765
#        82935
#        96670
#        109145
#        123927
#        146630
#        164097
#        188689
#        205167
#        220429
#        235824
#        256592
#        271854
#
# Disc length: 3786 seconds
#
# Revision: 1
# Processed by: cddbd v1.5.2PL0 Copyright (c) Steve Scherf et al.
# Submitted via: ExactAudioCopy v1.0b6
#
DISCID=de0ec810
DTITLE=Captain Beefheart - The Best Of The Virgin and Liberty Years
DYEAR=2002
DGENRE=Indie
TTITLE0=Safe As Milk (1968)
TTITLE1=Gimme Dat Harp Boy (1968)
TTITLE2=Kandy Korn (1968)
TTITLE3=Upon The Me-O-My (1974)
TTITLE4=New Electric Ride (1974)
TTITLE5=Party Of Special Things To Do (1974)
TTITLE6=Twist Ah Luck (1974)
TTITLE7=Blue Jeans and Moonbeams (1974)
TTITLE8=The Floppy Boot Stomp (1979)
TTITLE9=Bot Chain Puller (1979)
TTITLE10=Run Paint Run Run (1980)
TTITLE11=Hot Head (1980)
TTITLE12=Ashtray Heart (1980)
TTITLE13=Ice Cream For Crow (1982)
TTITLE14=The Part Sure Is Tense (1982)
TTITLE15=The Witch Doctor Life (1982)
EXTD=
EXTT0=
EXTT1=
EXTT2=
EXTT3=
EXTT4=
EXTT5=
EXTT6=
EXTT7=
EXTT8=
EXTT9=
EXTT10=
EXTT11=
EXTT12=
EXTT13=
EXTT14=
EXTT15=
PLAYORDER=
